<?xml version="1.0" encoding="UTF-8"?>
<svg width="64px" height="64px" viewBox="0 0 64 64" version="1.1" xmlns="http://www.w3.org/2000/svg" xmlns:xlink="http://www.w3.org/1999/xlink">
    <title>Icon-Architecture/48/Arch_Amazon-VPC-Lattice_48</title>
    <defs>
        <linearGradient x1="0%" y1="100%" x2="100%" y2="0%" id="linearGradient-1">
            <stop stop-color="#4D27A8" offset="0%"></stop>
            <stop stop-color="#A166FF" offset="100%"></stop>
        </linearGradient>
    </defs>
    <g id="Icon-Architecture/48/Arch_Amazon-VPC-Lattice_48" stroke="none" stroke-width="1" fill="none" fill-rule="evenodd">
        <g id="Icon-Architecture-BG/48/Networking-Content-Delivery" fill="url(#linearGradient-1)">
            <rect id="Rectangle" x="0" y="0" width="64" height="64"></rect>
        </g>
        <g id="Icon-Service/48/Amazon-VPC-Lattice_48" transform="translate(10.000000, 10.000000)" fill="#FFFFFF">
            <path d="M22.01,36 C11.144,36 11.019,25.558 11.019,25.113 L11.019,12.22 L22.01,8.069 L33,12.22 L33,25.113 C33,27.667 32.207,36 22.01,36 L22.01,36 Z M2,7 L7,7 L7,2 L2,2 L2,7 Z M37,7 L42,7 L42,2 L37,2 L37,7 Z M37,42 L42,42 L42,37 L37,37 L37,42 Z M2,42 L7,42 L7,37 L2,37 L2,42 Z M43,9 C43.553,9 44,8.552 44,8 L44,1 C44,0.448 43.553,0 43,0 L36,0 C35.448,0 35,0.448 35,1 L35,7.586 L32.64,9.946 L22.364,6.064 C22.135,5.979 21.885,5.979 21.656,6.064 L11.365,9.951 L9,7.586 L9,1 C9,0.448 8.553,0 8,0 L1,0 C0.448,0 0,0.448 0,1 L0,8 C0,8.552 0.448,9 1,9 L7.586,9 L9.366,10.779 C9.153,10.966 9.019,11.234 9.019,11.528 L9.019,25.113 C9.019,26.96 9.497,29.484 10.774,31.813 L7.586,35 L1,35 C0.448,35 0,35.448 0,36 L0,43 C0,43.552 0.448,44 1,44 L8,44 C8.553,44 9,43.552 9,43 L9,36.414 L11.898,33.516 C13.881,36.04 17.063,38 22.01,38 C27.26,38 30.389,36.063 32.257,33.671 L35,36.414 L35,43 C35,43.552 35.448,44 36,44 L43,44 C43.553,44 44,43.552 44,43 L44,36 C44,35.448 43.553,35 43,35 L36.414,35 L33.365,31.951 C34.855,29.116 35,26.139 35,25.113 L35,11.528 C35,11.229 34.864,10.956 34.644,10.77 L36.414,9 L43,9 Z M29,25.113 C29,29.397 27.02,31.62 23.01,31.936 L23.01,12.722 L29,14.985 L29,25.113 Z M15.019,25.113 L15.019,14.985 L21.01,12.722 L21.01,31.948 C15.477,31.43 15.019,26.641 15.019,25.113 L15.019,25.113 Z M30.354,13.358 L22.364,10.34 C22.135,10.254 21.885,10.254 21.656,10.34 L13.665,13.358 C13.277,13.505 13.019,13.877 13.019,14.293 L13.019,25.113 C13.019,29.213 15.373,34 22.01,34 C27.808,34 31,30.844 31,25.113 L31,14.293 C31,13.877 30.742,13.505 30.354,13.358 L30.354,13.358 Z" id="Fill-6"></path>
        </g>
    </g>
</svg>